# xmcd CD database file
#
# Track frame offsets:
#	150
#	52200
#	71363
#	80850
#	96713
#	105862
#	133987
#	143351
#	169650
#	177251
#	201712
#	211076
#	240300
#	249712
#	269887
#	279000
#	302025
#	311400
#
# Disc length: 4462 seconds
#
# Revision: 0
# Processed by: cddbd v1.5.2PL0 Copyright (c) Steve Scherf et al.
# Submitted via: CDex 1.50
#
DISCID=0e116c12
DTITLE=Louise L.Hay - Oui, je peux
DYEAR=1900
DGENRE=New Age
TTITLE0=Introduction
TTITLE1=La santé
TTITLE2=Affirmation santé
TTITLE3=Le pardon
TTITLE4=Affirmation pardon
TTITLE5=Prospérité
TTITLE6=Affirmation prospérité
TTITLE7=Créativité
TTITLE8=Affirmation créativité
TTITLE9=Relation humaine
TTITLE10=Affirmation relation
TTITLE11=Réussite professionnelle
TTITLE12=Affirmation professionnelle
TTITLE13=Vie sans stress
TTITLE14=Affirmation sans stress
TTITLE15=Estime de soi
TTITLE16=Affirmation estime de soi
TTITLE17=Conclusion
EXTD=
EXTT0=
EXTT1=
EXTT2=
EXTT3=
EXTT4=
EXTT5=
EXTT6=
EXTT7=
EXTT8=
EXTT9=
EXTT10=
EXTT11=
EXTT12=
EXTT13=
EXTT14=
EXTT15=
EXTT16=
EXTT17=
PLAYORDER=
